<svg width="14" height="14" viewBox="0 0 14 14" fill="none" xmlns="http://www.w3.org/2000/svg">
<g clip-path="url(#clip0_84_22446)">
<path d="M5.09973 7.72395C5.09973 7.54857 4.95748 7.40649 4.78196 7.40649L3.67307 7.40649C3.49775 7.40649 3.35547 7.54857 3.35547 7.72395L3.35547 8.8327C3.35547 9.00831 3.49775 9.15044 3.67307 9.15044L4.78196 9.15044C4.95748 9.15044 5.09973 9.00831 5.09973 8.8327L5.09973 7.72395Z" fill="#E36F59"/>
<path d="M7.87302 7.72395C7.87302 7.54857 7.73074 7.40649 7.55557 7.40649L6.44651 7.40649C6.27119 7.40649 6.12891 7.54857 6.12891 7.72395L6.12891 8.8327C6.12891 9.00831 6.27119 9.15044 6.44651 9.15044L7.55557 9.15044C7.73074 9.15044 7.87302 9.00831 7.87302 8.8327L7.87302 7.72395Z" fill="#E36F59"/>
<path d="M10.6466 7.72395C10.6466 7.54857 10.5043 7.40649 10.329 7.40649L9.22011 7.40649C9.04459 7.40649 8.90234 7.54857 8.90234 7.72395L8.90234 8.8327C8.90234 9.00831 9.04459 9.15044 9.22011 9.15044L10.329 9.15044C10.5043 9.15044 10.6466 9.00831 10.6466 8.8327L10.6466 7.72395Z" fill="#E36F59"/>
<path d="M5.09973 10.4954C5.09973 10.3197 4.95748 10.1777 4.78196 10.1777L3.67307 10.1777C3.49775 10.1777 3.35547 10.3197 3.35547 10.4954L3.35547 11.6039C3.35547 11.7794 3.49775 11.9215 3.67307 11.9215L4.78196 11.9215C4.95748 11.9215 5.09973 11.7794 5.09973 11.6039L5.09973 10.4954Z" fill="#E36F59"/>
<path d="M7.87302 10.4954C7.87302 10.3197 7.73074 10.1777 7.55557 10.1777L6.44651 10.1777C6.27119 10.1777 6.12891 10.3197 6.12891 10.4954L6.12891 11.6039C6.12891 11.7794 6.27119 11.9215 6.44651 11.9215L7.55557 11.9215C7.73074 11.9215 7.87302 11.7794 7.87302 11.6039L7.87302 10.4954Z" fill="#E36F59"/>
<path d="M10.6466 10.4954C10.6466 10.3197 10.5043 10.1777 10.3292 10.1777L9.22011 10.1777C9.04459 10.1777 8.90234 10.3197 8.90234 10.4954L8.90234 11.6039C8.90234 11.7794 9.04459 11.9215 9.22011 11.9215L10.3292 11.9215C10.5043 11.9215 10.6466 11.7794 10.6466 11.6039L10.6466 10.4954Z" fill="#E36F59"/>
<path d="M12.6274 1.55881L12.6274 3.25235C12.6274 4.0178 12.0064 4.63464 11.2411 4.63464L10.3665 4.63464C9.60113 4.63464 8.97193 4.0178 8.97193 3.25234L8.97193 1.55273L5.0302 1.55273L5.0302 3.25234C5.0302 4.0178 4.40103 4.63464 3.63574 4.63464L2.76105 4.63464C1.99573 4.63464 1.37479 4.0178 1.37479 3.25234L1.37479 1.55881C0.705894 1.57898 0.15625 2.13246 0.15625 2.81277L0.15625 12.7377C0.15625 13.4308 0.718025 14 1.41113 14L12.591 14C13.2831 14 13.8459 13.4296 13.8459 12.7377L13.8459 2.81277C13.8459 2.13246 13.2963 1.57898 12.6274 1.55881ZM12.2212 12.1196C12.2212 12.4191 11.9783 12.6621 11.6787 12.6621L2.29956 12.6621C1.99992 12.6621 1.75706 12.4191 1.75706 12.1196L1.75706 6.99305C1.75706 6.69341 1.99989 6.45041 2.29956 6.45041L11.6786 6.45041C11.9783 6.45041 12.2212 6.69341 12.2212 6.99305L12.2212 12.1196Z" fill="#E36F59"/>
<path d="M2.76061 3.72677L3.62564 3.72677C3.8882 3.72677 4.10109 3.5142 4.10109 3.25163L4.10109 0.475307C4.10109 0.212717 3.8882 5.70602e-08 3.62564 4.77144e-08L2.76061 1.69236e-08C2.49802 7.57672e-09 2.28516 0.212717 2.28516 0.475307L2.28516 3.25163C2.28516 3.5142 2.49802 3.72677 2.76061 3.72677Z" fill="#E36F59"/>
<path d="M10.3543 3.72677L11.2194 3.72677C11.4817 3.72677 11.6946 3.5142 11.6946 3.25163L11.6946 0.475307C11.6947 0.212717 11.4818 5.70541e-08 11.2194 4.77133e-08L10.3543 1.69226e-08C10.0918 7.57774e-09 9.87891 0.212717 9.87891 0.475307L9.87891 3.25163C9.87891 3.5142 10.0918 3.72677 10.3543 3.72677Z" fill="#E36F59"/>
</g>
<defs>
<clipPath id="clip0_84_22446">
<rect width="14" height="14" fill="white"/>
</clipPath>
</defs>
</svg>
