<svg width="86" height="42" viewBox="0 0 86 42" fill="none" xmlns="http://www.w3.org/2000/svg">
<path fill-rule="evenodd" clip-rule="evenodd" d="M37.8989 8.53061C34.0237 11.3161 31.5 15.8633 31.5 21C31.5 26.1367 34.0237 30.6839 37.8989 33.4694C34.074 38.6443 27.9289 42 21 42C9.40202 42 0 32.598 0 21C0 9.40202 9.40202 0 21 0C27.9289 0 34.074 3.35572 37.8989 8.53061Z" fill="#E36F59"/>
<path d="M13.824 13.832L11.712 14.552L12.072 14.024V27.152L11.712 26.648L13.824 27.272V29H6.864V27.272L8.952 26.672L8.64 27.152V14.024L9.072 14.552L6.864 13.952V12.224L13.824 12.104V13.832ZM18.066 29V27.272L20.73 26.6L20.106 27.464V14.048L20.802 14.576H16.89L17.658 13.904L17.01 16.952H14.97V12.104H28.698V16.952H26.658L26.058 14.048L26.778 14.576H22.866L23.562 14.048V27.464L22.962 26.6L25.602 27.272V29H18.066Z" fill="white"/>
<path d="M39.6418 27.032L39.4018 26.744L41.2498 27.272V29H34.6738V27.272L36.5218 26.744L36.2818 27.032V18.272L36.4978 18.488L34.6738 17.984V16.256L39.6418 16.088V27.032ZM37.8658 14.216C37.2738 14.216 36.7938 14.048 36.4258 13.712C36.0738 13.376 35.8978 12.896 35.8978 12.272C35.8978 11.6 36.0818 11.104 36.4498 10.784C36.8338 10.448 37.3138 10.28 37.8898 10.28C38.4498 10.28 38.9138 10.448 39.2818 10.784C39.6498 11.104 39.8338 11.592 39.8338 12.248C39.8338 12.904 39.6418 13.4 39.2578 13.736C38.8898 14.056 38.4258 14.216 37.8658 14.216ZM42.6024 29V27.272L44.5224 26.72L44.2104 27.08V18.176L44.5224 18.536H42.5304V16.736L44.5944 16.208L44.2104 16.712V15.176C44.2104 14.04 44.4104 13.104 44.8104 12.368C45.2264 11.616 45.8024 11.056 46.5384 10.688C47.2744 10.32 48.1144 10.136 49.0584 10.136C49.3944 10.136 49.7544 10.16 50.1384 10.208C50.5224 10.24 50.9064 10.304 51.2904 10.4L50.8344 12.728C50.6104 12.664 50.3864 12.616 50.1624 12.584C49.9544 12.552 49.7464 12.536 49.5384 12.536C48.8984 12.536 48.4104 12.72 48.0744 13.088C47.7384 13.456 47.5704 14.056 47.5704 14.888V16.712L47.1384 16.304H50.6424L50.5704 18.536H47.2344L47.5704 18.176V27.08L47.2584 26.72L49.4904 27.272V29H42.6024ZM56.7859 27.032L56.5459 26.744L58.3939 27.272V29H51.8179V27.272L53.6659 26.744L53.4259 27.032V18.272L53.6419 18.488L51.8179 17.984V16.256L56.7859 16.088V27.032ZM55.0099 14.216C54.4179 14.216 53.9379 14.048 53.5699 13.712C53.2179 13.376 53.0419 12.896 53.0419 12.272C53.0419 11.6 53.2259 11.104 53.5939 10.784C53.9779 10.448 54.4579 10.28 55.0339 10.28C55.5939 10.28 56.0579 10.448 56.4259 10.784C56.7939 11.104 56.9779 11.592 56.9779 12.248C56.9779 12.904 56.7859 13.4 56.4019 13.736C56.0339 14.056 55.5699 14.216 55.0099 14.216ZM65.5545 29.288C64.4505 29.288 63.4505 29.032 62.5545 28.52C61.6745 27.992 60.9785 27.24 60.4665 26.264C59.9545 25.288 59.6985 24.104 59.6985 22.712C59.6985 21.448 59.8825 20.384 60.2505 19.52C60.6185 18.656 61.1145 17.96 61.7385 17.432C62.3625 16.888 63.0585 16.496 63.8265 16.256C64.5945 16.016 65.3865 15.896 66.2025 15.896C66.9705 15.896 67.7465 15.992 68.5305 16.184C69.3145 16.376 69.9545 16.592 70.4505 16.832L70.3545 20.36H68.1945L67.8345 18.392L68.0985 18.584C67.8585 18.488 67.5625 18.416 67.2105 18.368C66.8745 18.32 66.5625 18.296 66.2745 18.296C65.5865 18.296 65.0105 18.472 64.5465 18.824C64.0985 19.16 63.7625 19.648 63.5385 20.288C63.3145 20.912 63.2025 21.656 63.2025 22.52C63.2025 23.448 63.3305 24.232 63.5865 24.872C63.8425 25.512 64.2025 26 64.6665 26.336C65.1465 26.656 65.6985 26.816 66.3225 26.816C66.8185 26.816 67.3625 26.712 67.9545 26.504C68.5465 26.296 69.1625 25.984 69.8025 25.568L70.9305 27.272C70.0345 27.96 69.1385 28.472 68.2425 28.808C67.3465 29.128 66.4505 29.288 65.5545 29.288ZM78.3231 15.896C80.2111 15.896 81.6831 16.456 82.7391 17.576C83.7951 18.696 84.3231 20.288 84.3231 22.352C84.3231 23.792 84.0671 25.032 83.5551 26.072C83.0431 27.096 82.3071 27.888 81.3471 28.448C80.3871 29.008 79.2351 29.288 77.8911 29.288C76.0031 29.288 74.5391 28.728 73.4991 27.608C72.4751 26.488 71.9631 24.896 71.9631 22.832C71.9631 21.392 72.2111 20.16 72.7071 19.136C73.2191 18.096 73.9471 17.296 74.8911 16.736C75.8351 16.176 76.9791 15.896 78.3231 15.896ZM78.1551 18.296C77.2431 18.296 76.5631 18.656 76.1151 19.376C75.6671 20.08 75.4431 21.176 75.4431 22.664C75.4431 24.152 75.6591 25.232 76.0911 25.904C76.5231 26.56 77.1791 26.888 78.0591 26.888C78.6991 26.888 79.2191 26.728 79.6191 26.408C80.0191 26.088 80.3231 25.6 80.5311 24.944C80.7391 24.288 80.8431 23.48 80.8431 22.52C80.8431 21.064 80.6191 20 80.1711 19.328C79.7231 18.64 79.0511 18.296 78.1551 18.296Z" fill="#23262D"/>
</svg>
