<svg width="392" height="384" viewBox="0 0 392 384" fill="none" xmlns="http://www.w3.org/2000/svg">
<g clip-path="url(#clip0_87_27644)">
<path d="M380.394 148.717C336.917 74.225 218.809 100.81 194.705 64.5901C182.385 46.0339 168.548 24.5337 148.55 13.3821C129.446 2.67662 107.306 -1.15952 88.0228 0.26788C19.1037 5.35299 -10.1781 66.9096 3.1237 134.622C20.7999 224.905 100.878 317.151 195.954 317.775C245.68 318.132 293.173 300.379 330.49 275.221C330.757 275.042 331.025 274.864 331.293 274.686C368.609 249.349 413.603 205.546 380.394 148.717Z" fill="#E36F59"/>
<path opacity="0.8" d="M380.394 148.717C336.917 74.225 218.809 100.81 194.705 64.5901C182.385 46.0339 168.548 24.5337 148.55 13.3821C129.446 2.67662 107.306 -1.15952 88.0228 0.26788C19.1037 5.35299 -10.1781 66.9096 3.1237 134.622C20.7999 224.905 100.878 317.151 195.954 317.775C245.68 318.132 293.173 300.379 330.49 275.221C330.757 275.042 331.025 274.864 331.293 274.686C368.609 249.349 413.603 205.546 380.394 148.717Z" fill="white"/>
<path d="M42.5826 154.159H37.7618C26.9597 154.159 18.2109 162.902 18.2109 173.697V281.019C18.2109 291.814 26.9597 300.557 37.7618 300.557H104.181C114.983 300.557 123.732 291.814 123.732 281.019" stroke="#263238" stroke-width="1.1031" stroke-miterlimit="10" stroke-linecap="round" stroke-linejoin="round" stroke-dasharray="4.41 4.41"/>
<path d="M118.285 52.8137V31.6703C118.285 25.0686 123.642 19.7158 130.248 19.7158H216.575C223.182 19.7158 228.538 25.0686 228.538 31.6703" stroke="#263238" stroke-width="1.1031" stroke-miterlimit="10" stroke-linecap="round" stroke-linejoin="round" stroke-dasharray="4.41 4.41"/>
<path d="M195.955 383.435C290.373 383.435 366.914 372.731 366.914 359.526C366.914 346.322 290.373 335.617 195.955 335.617C101.537 335.617 24.9961 346.322 24.9961 359.526C24.9961 372.731 101.537 383.435 195.955 383.435Z" fill="#E0E0E0"/>
<path opacity="0.5" d="M195.955 383.435C290.373 383.435 366.914 372.731 366.914 359.526C366.914 346.322 290.373 335.617 195.955 335.617C101.537 335.617 24.9961 346.322 24.9961 359.526C24.9961 372.731 101.537 383.435 195.955 383.435Z" fill="white"/>
<path d="M357.183 81.2729V241.945C357.183 252.918 348.345 261.75 337.364 261.75H54.6351C43.6545 261.75 34.8164 252.918 34.8164 241.945V81.2729C34.8164 80.8269 34.8164 80.3808 34.9057 79.8455C35.6199 69.5861 44.1901 61.4678 54.6351 61.4678H337.364C347.809 61.4678 356.38 69.5861 357.094 79.8455C357.183 80.3808 357.183 80.8269 357.183 81.2729Z" fill="white" stroke="#263238" stroke-width="1.1031" stroke-miterlimit="10" stroke-linecap="round" stroke-linejoin="round"/>
<path d="M329.954 254.256H63.0259C52.7595 254.256 44.457 245.96 44.457 235.7V87.3398H348.523V235.7C348.523 245.96 340.22 254.256 329.954 254.256Z" fill="#263238"/>
<path opacity="0.2" d="M348.523 87.3398V235.7C348.523 245.96 340.309 254.256 330.132 254.256H62.8474C52.6702 254.256 44.457 245.96 44.457 235.7V87.3398H348.523Z" fill="white"/>
<path d="M357.094 79.9348H34.9062C35.6204 69.5861 44.1907 61.4678 54.6357 61.4678H337.365C347.81 61.4678 356.38 69.5861 357.094 79.9348Z" fill="#75B687" stroke="#263238" stroke-width="1.1031" stroke-miterlimit="10"/>
<path d="M74.4555 70.657C74.4555 72.6197 72.8486 74.1363 70.9739 74.1363C69.0098 74.1363 67.4922 72.5305 67.4922 70.657C67.4922 68.6943 69.0991 67.1777 70.9739 67.1777C72.9379 67.1777 74.4555 68.7836 74.4555 70.657Z" fill="#263238"/>
<path d="M89.2719 70.657C89.2719 72.6197 87.665 74.1363 85.7903 74.1363C83.8262 74.1363 82.3086 72.5305 82.3086 70.657C82.3086 68.6943 83.9155 67.1777 85.7903 67.1777C87.7543 67.1777 89.2719 68.7836 89.2719 70.657Z" fill="#263238"/>
<path d="M100.611 74.1363C102.533 74.1363 104.092 72.5786 104.092 70.657C104.092 68.7355 102.533 67.1777 100.611 67.1777C98.6877 67.1777 97.1289 68.7355 97.1289 70.657C97.1289 72.5786 98.6877 74.1363 100.611 74.1363Z" fill="#263238"/>
<path d="M348.523 87.3398V235.7C348.523 245.96 340.22 254.256 329.954 254.256H63.0259C54.0093 254.256 46.5103 247.833 44.8141 239.269C44.5463 238.109 44.457 236.949 44.457 235.7V87.3398H348.523Z" stroke="#263238" stroke-width="1.1031" stroke-miterlimit="10"/>
<path d="M348.255 110.267C346.916 109.553 345.577 108.929 344.149 108.572L342.452 101.078H335.4L333.704 108.572C332.275 108.929 330.847 109.553 329.597 110.267L323.169 106.163L318.17 111.159L322.187 117.582C321.473 118.921 320.848 120.259 320.491 121.686L312.992 123.381V130.429L320.491 132.124C320.848 133.551 321.473 134.979 322.187 136.317L318.081 142.74L323.08 147.736L329.508 143.632C330.847 144.346 332.186 144.971 333.614 145.328L335.311 152.732H342.363L344.059 145.328C345.488 144.881 346.916 144.346 348.166 143.632L348.523 143.811V110.089L348.255 110.267ZM338.971 136.139C333.882 136.139 329.776 132.035 329.776 126.95C329.776 121.865 333.882 117.761 338.971 117.761C344.059 117.761 348.166 121.865 348.166 126.95C348.077 132.035 343.97 136.139 338.971 136.139Z" fill="#263238"/>
<path d="M220.507 117.494V102.595L204.795 99.1159C203.902 96.0827 202.741 93.1387 201.224 90.3731L203.099 87.3398H128.912L130.787 90.2839C129.269 93.0494 128.02 95.9935 127.216 99.0267L111.504 102.506V117.404L127.216 120.884C128.02 123.917 129.269 126.861 130.787 129.627L122.127 143.187L132.662 153.714L146.231 145.06C148.999 146.577 151.945 147.826 154.98 148.629L158.462 164.33H173.37L176.852 148.629C179.887 147.737 182.833 146.577 185.512 145.06L199.081 153.714L209.616 143.187L201.045 129.627C202.563 126.861 203.813 123.917 204.616 120.884L220.507 117.494ZM166.05 129.27C155.426 129.27 146.767 120.616 146.767 110C146.767 99.3835 155.426 90.7299 166.05 90.7299C176.674 90.7299 185.333 99.3835 185.333 110C185.333 120.616 176.674 129.27 166.05 129.27Z" fill="#263238"/>
<path d="M121.322 219.998L121.947 208.133L109.627 204.654C109.092 202.245 108.199 199.836 107.128 197.606L114.537 187.168L106.592 178.336L95.4328 184.581C93.2902 183.243 91.0584 182.172 88.648 181.369L86.5947 168.879L74.7213 168.255L71.3289 180.566C68.9185 181.101 66.5082 181.994 64.2763 183.064L53.8313 175.66L44.9932 183.599L51.3317 194.751C49.9926 196.892 48.9213 199.122 48.1178 201.531L44.5469 202.156V218.214L47.1358 218.928C47.6714 221.336 48.5642 223.745 49.6355 225.975L44.5469 233.112L44.904 239.268L50.1711 245.156L61.3303 238.911C63.4729 240.249 65.7047 241.409 68.1151 242.212L70.1684 254.345L70.2576 254.88L82.131 255.505L82.4881 254.345L85.6127 243.193C88.1124 242.658 90.4335 241.766 92.6653 240.695L103.021 248.1L111.859 240.16L105.61 229.009C106.949 226.868 108.02 224.637 108.824 222.228L121.322 219.998ZM89.8085 201.531C84.095 195.197 74.4535 194.751 68.1151 200.371C61.7767 206.081 61.3303 215.716 66.9545 222.05C72.668 228.384 82.3096 228.83 88.648 223.21C94.9864 217.589 95.5221 207.865 89.8085 201.531Z" fill="#263238"/>
<path d="M216.129 202.334C216.575 200.461 216.843 198.587 216.843 196.714L225.324 192.253L223.003 183.599L213.362 184.046C212.38 182.44 211.219 180.923 209.88 179.585L212.737 170.396L204.97 165.935L198.453 172.983C196.667 172.537 194.703 172.269 192.829 172.269L188.365 163.705L179.705 166.025L180.152 175.66C178.545 176.641 177.027 177.801 175.688 179.139L166.493 176.284L162.029 184.046L169.171 190.558C168.725 192.432 168.457 194.305 168.457 196.178L159.887 200.639L162.208 209.293L171.849 208.847C172.831 210.452 173.992 211.969 175.331 213.307L172.474 222.496L180.241 226.957L186.669 219.909C188.544 220.355 190.418 220.623 192.293 220.623L196.757 229.187L205.416 226.868L205.059 218.66L204.97 217.233C206.577 216.251 208.094 215.091 209.523 213.753L218.718 216.608L222.557 210.006L223.182 208.847L216.129 202.334ZM195.775 207.598C189.615 209.293 183.276 205.635 181.58 199.479C179.884 193.324 183.544 186.99 189.704 185.294C195.864 183.599 202.202 187.257 203.899 193.413C205.505 199.569 201.935 205.903 195.775 207.598Z" fill="#263238"/>
<path d="M315.045 217.5L317.009 205.635L304.957 200.818C304.689 198.32 304.064 195.822 303.26 193.413L311.92 183.778L304.957 173.965L292.994 179.05C291.03 177.444 288.887 176.106 286.566 175.035L285.852 162.099L273.979 160.137L269.158 172.091C266.658 172.359 264.159 172.983 261.748 173.786L252.107 165.133L242.287 172.091L247.375 183.956C245.947 185.741 244.786 187.614 243.804 189.577C243.626 189.844 243.536 190.112 243.358 190.38L230.413 191.093L228.449 202.959L230.413 203.762L240.501 207.776C240.769 210.274 241.305 212.772 242.197 215.181L233.538 224.816L240.501 234.629L252.464 229.544C254.428 231.15 256.57 232.488 258.891 233.559L259.606 246.405L271.479 248.368L276.3 236.503C278.799 236.235 281.299 235.611 283.71 234.808L293.351 243.461L303.171 236.413L298.083 224.459C299.689 222.496 301.029 220.266 302.189 218.036L315.045 217.5ZM281.746 216.965C274.782 221.961 265.051 220.355 260.052 213.397C255.053 206.438 256.66 196.714 263.623 191.718C270.586 186.722 280.317 188.328 285.316 195.286C290.316 202.334 288.709 211.969 281.746 216.965Z" fill="#263238"/>
<path d="M154.087 282.269H60.7065C54.2789 282.269 49.0117 277.006 49.0117 270.582V141.403C49.0117 134.979 54.2789 129.716 60.7065 129.716H154.087C160.514 129.716 165.781 134.979 165.781 141.403V270.582C165.781 277.006 160.604 282.269 154.087 282.269Z" fill="#70CAFC" stroke="#263238" stroke-width="1.1031" stroke-miterlimit="10"/>
<path opacity="0.2" d="M154.087 282.269H60.7065C54.2789 282.269 49.0117 277.006 49.0117 270.582V141.403C49.0117 134.979 54.2789 129.716 60.7065 129.716H154.087C160.514 129.716 165.781 134.979 165.781 141.403V270.582C165.781 277.006 160.604 282.269 154.087 282.269Z" fill="black"/>
<path d="M176.672 152.911V282.091C176.672 288.514 171.405 293.778 164.977 293.778H71.5972C65.1695 293.778 59.9023 288.514 59.9023 282.091V152.911C59.9023 146.488 65.1695 141.225 71.5972 141.225H164.977C171.405 141.225 176.672 146.488 176.672 152.911Z" fill="white" stroke="#263238" stroke-width="1.1031" stroke-miterlimit="10" stroke-linecap="round" stroke-linejoin="round"/>
<path d="M176.672 152.911V159.87H59.9023V152.911C59.9023 146.488 65.1695 141.225 71.5972 141.225H164.977C171.405 141.225 176.672 146.488 176.672 152.911Z" fill="#70CAFC" stroke="#263238" stroke-width="1.1031" stroke-miterlimit="10"/>
<path d="M99.6289 167.81H70.8828V172.627H99.6289V167.81Z" fill="#70CAFC"/>
<path d="M99.6289 210.988H70.8828V215.806H99.6289V210.988Z" fill="#70CAFC"/>
<path d="M99.6289 250.153H70.8828V254.971H99.6289V250.153Z" fill="#70CAFC"/>
<path d="M152.479 179.765H70.8828V183.333H152.479V179.765Z" fill="#263238"/>
<path d="M137.749 186.545H70.8828V190.024H137.749V186.545Z" fill="#263238"/>
<path d="M146.497 193.146H70.8828V196.626H146.497V193.146Z" fill="#263238"/>
<path d="M146.497 199.838H70.8828V203.317H146.497V199.838Z" fill="#263238"/>
<path d="M152.479 218.929H70.8828V222.497H152.479V218.929Z" fill="#263238"/>
<path d="M137.749 225.709H70.8828V229.188H137.749V225.709Z" fill="#263238"/>
<path d="M146.497 232.311H70.8828V235.79H146.497V232.311Z" fill="#263238"/>
<path d="M152.479 261.929H70.8828V265.497H152.479V261.929Z" fill="#263238"/>
<path d="M137.749 268.62H70.8828V272.099H137.749V268.62Z" fill="#263238"/>
<path d="M146.497 275.311H70.8828V278.79H146.497V275.311Z" fill="#263238"/>
<path d="M308.26 51.6545V103.844C308.26 111.516 302.011 117.761 294.334 117.761H173.993C166.316 117.761 160.066 111.516 160.066 103.844V51.6545C160.066 43.9822 166.316 37.7373 173.993 37.7373H294.334C302.011 37.7373 308.26 43.9822 308.26 51.6545Z" fill="white" stroke="#222221" stroke-width="1.1031" stroke-miterlimit="10"/>
<path d="M308.26 51.6545V52.8142H160.066V51.6545C160.066 43.9822 166.316 37.7373 173.993 37.7373H294.334C302.011 37.7373 308.26 43.9822 308.26 51.6545Z" fill="#70CAFC" stroke="#263238" stroke-width="1.1031" stroke-miterlimit="10"/>
<path d="M181.759 47.7292C180.956 48.5321 179.527 48.5321 178.724 47.7292C177.92 46.9262 177.92 45.4988 178.724 44.6959C179.527 43.893 180.956 43.893 181.759 44.6959C182.652 45.5881 182.652 46.9262 181.759 47.7292Z" fill="#263238"/>
<path d="M191.759 47.7292C190.956 48.5321 189.527 48.5321 188.724 47.7292C187.92 46.9262 187.92 45.4988 188.724 44.6959C189.527 43.893 190.956 43.893 191.759 44.6959C192.562 45.5881 192.562 46.9262 191.759 47.7292Z" fill="#263238"/>
<path d="M201.669 47.7292C200.866 48.5321 199.437 48.5321 198.634 47.7292C197.83 46.9262 197.83 45.4988 198.634 44.6959C199.437 43.893 200.866 43.893 201.669 44.6959C202.473 45.5881 202.473 46.9262 201.669 47.7292Z" fill="#263238"/>
<path d="M217.917 62.4492H169.441V104.29H217.917V62.4492Z" stroke="#263238" stroke-width="1.1031" stroke-miterlimit="10" stroke-linecap="round" stroke-linejoin="round" stroke-dasharray="4.41 4.41"/>
<path d="M281.21 62.4492H225.414V65.3932H281.21V62.4492Z" fill="#263238"/>
<path d="M268.176 68.5156H225.414V71.4596H268.176V68.5156Z" fill="#263238"/>
<path d="M289.155 74.582H225.414V77.526H289.155V74.582Z" fill="#263238"/>
<path d="M279.692 80.5596H225.414V83.5036H279.692V80.5596Z" fill="#263238"/>
<path d="M237.826 355.155C237.826 355.155 211.937 362.56 208.366 363.898C205.062 365.057 196.135 368.18 189.44 367.199C188.815 367.109 188.1 366.931 187.565 366.753C180.78 364.701 177.745 362.827 176.852 358.634C175.959 354.352 179.352 351.23 182.566 349.267C185.779 347.215 203.456 345.163 203.456 345.163L207.741 346.412L237.826 355.155Z" fill="#E36F59"/>
<path d="M189.44 367.109C188.815 367.02 188.1 366.841 187.565 366.663C180.78 364.611 177.745 362.737 176.852 358.544C175.959 354.262 179.352 351.14 182.566 349.177C185.779 347.125 203.456 345.073 203.456 345.073L207.741 346.322C203.902 348.106 189.529 349.088 186.404 350.872C183.28 352.656 181.762 356.046 183.637 360.685C184.53 363.094 187.208 365.503 189.44 367.109Z" fill="white"/>
<path d="M233.898 356.225C233.898 356.225 214.436 361.221 206.759 364.522C199.081 367.734 184.351 369.161 179.084 362.47C173.817 355.869 178.459 350.07 183.726 348.821C188.993 347.572 199.527 345.52 205.33 346.323" stroke="#263238" stroke-width="1.1031" stroke-miterlimit="10" stroke-linecap="round" stroke-linejoin="round"/>
<path d="M189.796 366.752C189.796 366.752 179.887 361.31 183.19 353.727C185.6 348.107 198.813 349.356 205.33 346.233" stroke="#263238" stroke-width="1.1031" stroke-miterlimit="10" stroke-linecap="round" stroke-linejoin="round"/>
<path d="M316.656 368.358C316.388 371.035 315.495 373.533 312.817 375.139C311.031 376.209 308.532 376.834 304.871 376.744C295.766 376.655 278.714 370.143 278.714 370.143L262.734 361.311L271.037 348.196L273.269 344.628L279.161 345.966C279.161 345.966 283.981 348.732 288.892 350.873C293.802 353.103 305.675 353.549 309.871 356.939C314.067 360.24 317.102 363.898 316.656 368.358Z" fill="#E36F59"/>
<path d="M316.654 368.358C316.386 371.035 315.493 373.533 312.815 375.139C313.351 373.087 313.708 370.232 312.369 367.199C310.583 363.184 304.781 359.705 297.103 359.08C289.515 358.456 283.623 354.887 280.587 353.282C278.177 352.033 273.178 349.356 271.035 348.196L273.267 344.628L279.159 345.966C279.159 345.966 283.98 348.732 288.89 350.873C293.8 353.103 305.673 353.549 309.869 356.939C314.065 360.24 317.1 363.898 316.654 368.358Z" fill="white"/>
<path d="M266.216 363.809C277.554 370.321 290.588 375.05 303.622 376.566C306.568 376.923 309.871 376.923 311.835 374.782C312.906 373.533 313.353 371.838 313.174 370.232C312.817 366.128 309.335 362.917 305.586 361.222C301.836 359.616 297.641 359.17 293.623 358.278C289.606 357.385 285.767 355.958 282.107 354.085C279.25 352.568 276.393 350.784 273.269 350.07C270.055 349.356 266.306 350.248 264.609 353.014" stroke="#263238" stroke-width="1.1031" stroke-miterlimit="10" stroke-linecap="round" stroke-linejoin="round"/>
<path d="M310.85 375.852C313.796 374.336 316.207 371.57 316.653 368.269C317.189 364.433 315.046 360.508 311.922 358.099C308.797 355.69 304.958 354.62 301.119 353.817C297.281 353.014 293.353 352.479 289.692 351.051C284.068 348.821 278.533 344.539 272.73 346.055" stroke="#263238" stroke-width="1.1031" stroke-miterlimit="10" stroke-linecap="round" stroke-linejoin="round"/>
<path d="M284.247 225.618L257.197 215.359L256.84 215.27C256.84 215.27 256.929 214.556 257.018 213.485C257.197 211.344 257.286 207.776 256.304 206.616C254.786 204.832 250.501 206.348 246.395 204.386C242.199 202.512 234.521 205.902 234.521 205.902C234.521 205.902 228.986 204.921 226.487 208.936C225.237 212.147 225.683 216.965 225.683 216.965C225.683 216.965 225.505 217.054 225.147 217.143C221.934 218.303 204.436 224.905 200.687 227.581C196.58 230.525 192.027 260.233 190.599 268.976C189.17 277.718 186.581 285.569 187.831 288.602C189.17 291.636 208.007 306.088 218.809 309.835C229.611 313.582 268.088 312.511 268.088 312.511C268.088 312.511 268.713 312.333 269.874 311.976C276.39 309.924 299.423 301.271 311.654 281.019C311.654 281.019 299.869 242.212 284.247 225.618ZM211.221 275.667C209.257 277.094 210.328 282.536 210.328 282.536L206.936 279.592L215.417 258.716L219.077 274.774C219.077 274.685 213.185 274.239 211.221 275.667ZM279.247 288.959C278.355 289.405 281.925 279.413 280.229 277.094C278.533 274.774 273.355 275.042 273.355 275.042L273.802 272.276C273.891 272.009 276.837 256.575 276.837 256.575L277.819 255.326C277.819 255.326 288.353 273.347 290.228 279.681C290.228 279.77 278.712 288.959 279.247 288.959Z" fill="#E36F59"/>
<path opacity="0.5" d="M257.287 215.269C257.108 215.804 256.841 216.34 256.573 216.875C254.252 221.246 244.253 229.454 244.253 229.454L241.218 220.176L239.521 229.454C236.129 228.026 225.952 219.194 225.952 219.194C225.952 219.194 225.595 218.392 225.148 217.053C225.506 216.964 225.684 216.875 225.684 216.875C225.684 216.875 225.238 212.057 226.488 208.846C228.898 204.831 234.522 205.813 234.522 205.813C234.522 205.813 242.2 202.422 246.396 204.296C250.591 206.169 254.877 204.742 256.305 206.526C257.823 208.31 256.93 215.18 256.93 215.18L257.287 215.269Z" fill="white"/>
<path d="M233.272 160.493L219.346 175.302C219.346 175.302 217.382 176.997 218.185 181.28C218.989 185.562 220.774 189.309 222.113 189.576C223.452 189.844 225.327 189.844 225.327 189.844C225.327 189.844 228.362 196.357 230.416 198.855C230.416 198.855 231.13 208.846 230.773 211.612C230.773 211.612 235.772 215.983 240.504 216.519C245.235 217.054 252.556 209.828 252.556 209.828L254.341 200.996C254.341 200.996 258.626 194.483 258.894 192.788C259.162 191.093 261.126 191.539 262.108 190.647C263.09 189.755 265.322 186.008 265.679 182.35C266.036 178.782 266.036 174.589 261.84 175.838C258.18 174.856 260.501 167.184 260.501 167.184L254.162 161.564L233.272 160.493Z" fill="#FFE6DA"/>
<path opacity="0.2" d="M284.246 225.618L257.196 215.359L256.839 215.27C256.839 215.27 256.929 214.556 257.018 213.485L256.482 216.965L252.465 222.407C252.465 222.407 259.25 224.815 264.963 227.938C268.98 230.079 271.212 234.361 270.677 238.822L265.677 281.376L263.624 305.553L269.784 311.976C276.301 309.924 299.333 301.27 311.564 281.019C311.653 281.019 299.869 242.212 284.246 225.618ZM279.247 288.959C278.354 289.405 281.925 279.413 280.229 277.094C278.533 274.774 273.355 275.042 273.355 275.042L273.801 272.276C273.891 272.009 276.837 256.575 276.837 256.575L277.819 255.326C277.819 255.326 288.353 273.347 290.228 279.681C290.228 279.77 278.711 288.959 279.247 288.959Z" fill="black"/>
<path opacity="0.2" d="M220.863 277.094L216.667 263.088C216.667 263.088 209.168 237.395 203.99 231.061L205.329 249.171C205.329 249.171 200.865 270.76 196.759 277.183C192.652 283.607 191.76 285.213 196.759 285.213C201.758 285.213 213.899 294.847 213.899 294.847L213.007 286.818L220.863 277.094ZM210.328 282.536L206.936 279.592L215.417 258.716L219.077 274.775C219.077 274.775 213.274 274.329 211.31 275.756C209.257 277.094 210.328 282.536 210.328 282.536Z" fill="black"/>
<path d="M230.328 198.854C230.328 198.854 231.132 206.438 230.328 209.917" stroke="#263238" stroke-width="1.1031" stroke-miterlimit="10" stroke-linecap="round" stroke-linejoin="round"/>
<path d="M253.18 208.846C253.18 208.846 253.18 205.189 253.983 201.62" stroke="#263238" stroke-width="1.1031" stroke-miterlimit="10" stroke-linecap="round" stroke-linejoin="round"/>
<path d="M255.236 166.113C255.236 166.113 259.789 171.912 259.61 176.194C259.342 180.566 258.985 185.74 259.164 190.736C259.253 195.821 251.04 206.348 246.844 207.329C242.648 208.311 238.988 208.489 236.22 205.813C233.542 203.136 230.775 199.39 227.293 194.572C223.722 189.755 224.615 179.228 224.615 179.228" stroke="#263238" stroke-width="1.1031" stroke-miterlimit="10" stroke-linecap="round" stroke-linejoin="round"/>
<path d="M244.254 183.153C243.987 184.759 243.897 186.365 243.897 187.971C243.897 189.309 244.165 190.736 245.058 191.718C245.594 192.253 246.308 192.61 246.397 193.324C246.486 193.948 246.04 194.572 245.415 194.84C244.879 195.197 244.254 195.375 243.719 195.821" stroke="#263238" stroke-width="1.1031" stroke-miterlimit="10" stroke-linecap="round" stroke-linejoin="round"/>
<path d="M236.934 196.445C236.934 196.445 237.469 199.835 242.022 200.549" stroke="#263238" stroke-width="1.1031" stroke-miterlimit="10" stroke-linecap="round" stroke-linejoin="round"/>
<path d="M237.378 185.74C237.378 186.722 236.932 187.525 236.396 187.525C235.86 187.525 235.414 186.722 235.414 185.74C235.414 184.759 235.86 183.956 236.396 183.956C237.021 183.956 237.378 184.759 237.378 185.74Z" fill="#263238"/>
<path d="M251.038 186.187C251.038 187.168 250.592 187.971 250.056 187.971C249.521 187.971 249.074 187.168 249.074 186.187C249.074 185.205 249.521 184.402 250.056 184.402C250.681 184.402 251.038 185.205 251.038 186.187Z" fill="#263238"/>
<path d="M248.359 181.904C248.359 181.904 252.823 177.444 256.572 182.439" stroke="#263238" stroke-width="2.2062" stroke-miterlimit="10" stroke-linecap="round" stroke-linejoin="round"/>
<path d="M238.895 181.993C238.895 181.993 236.038 178.871 231.664 181.993" stroke="#263238" stroke-width="2.2062" stroke-miterlimit="10" stroke-linecap="round" stroke-linejoin="round"/>
<path d="M230.686 203.047C230.686 203.047 233.364 210.541 239.524 212.682C245.594 214.823 253.718 203.761 253.718 203.761L253.272 202.333C253.272 202.333 248.005 209.203 242.113 208.043C236.221 206.883 230.418 198.943 230.418 198.943L230.686 203.047Z" fill="#263238"/>
<path d="M225.24 189.577C225.24 189.577 221.58 190.826 220.687 188.06C219.705 185.205 216.402 177.8 219.348 175.303C222.205 172.805 224.526 178.603 224.526 178.603" stroke="#263238" stroke-width="1.1031" stroke-miterlimit="10" stroke-linecap="round" stroke-linejoin="round"/>
<path d="M259.164 191.093C259.164 191.093 262.556 191.806 263.538 188.952C264.52 186.097 267.824 178.692 264.878 176.194C262.021 173.696 259.7 179.495 259.7 179.495" stroke="#263238" stroke-width="1.1031" stroke-miterlimit="10" stroke-linecap="round" stroke-linejoin="round"/>
<path d="M224.524 185.74C225.506 185.651 227.202 184.759 227.738 183.867C228.273 182.975 228.452 181.993 228.63 181.012C228.987 179.138 229.166 177.176 229.166 175.302C229.166 174.589 229.166 173.786 229.345 173.072C229.612 172.358 230.059 171.645 230.594 171.109C231.844 169.593 233.362 168.344 234.612 166.827C235.772 165.311 236.665 163.348 236.397 161.474C236.397 161.474 244.61 168.968 256.484 166.649C262.822 165.4 268.982 159.779 268.268 152.821C268 150.323 266.125 148.539 263.804 147.914C260.68 147.111 257.823 148.806 254.966 149.877C249.788 151.839 244.7 148.449 239.432 147.914C234.969 147.468 229.434 148.003 227.113 152.464C227.113 152.464 218.989 153.445 215.507 160.047C211.936 166.649 218.721 175.838 218.721 175.838C218.721 175.838 221.399 172.537 224.881 179.228L224.524 185.74Z" fill="#263238"/>
<path d="M255.77 164.419C255.77 164.419 253.717 175.303 259.163 180.566C259.163 180.566 260.323 177.265 261.573 176.462C261.573 176.462 264.608 170.753 260.591 164.419C256.574 158.085 255.77 164.419 255.77 164.419Z" fill="#263238"/>
<path opacity="0.2" d="M265.769 152.018C264.966 155.051 262.466 157.37 259.52 158.53C251.932 161.653 244.612 158.173 237.023 157.549C230.863 157.013 223.989 162.545 223.543 168.968" stroke="white" stroke-width="1.1031" stroke-miterlimit="10" stroke-linecap="round" stroke-linejoin="round"/>
<path opacity="0.2" d="M218.898 167.184C218.988 162.188 222.291 157.371 226.933 155.497" stroke="white" stroke-width="1.1031" stroke-miterlimit="10" stroke-linecap="round" stroke-linejoin="round"/>
<path d="M228.629 208.846C228.629 208.846 233.628 214.377 240.413 216.875C240.413 216.875 249.519 214.288 254.072 207.954" stroke="#263238" stroke-width="1.1031" stroke-miterlimit="10" stroke-linecap="round" stroke-linejoin="round"/>
<path d="M237.87 193.032C241.904 191.183 243.674 186.417 241.824 182.386C239.974 178.355 235.204 176.586 231.171 178.435C227.137 180.284 225.367 185.05 227.217 189.081C229.067 193.112 233.836 194.881 237.87 193.032Z" stroke="#263238" stroke-width="1.1031" stroke-miterlimit="10" stroke-linecap="round" stroke-linejoin="round"/>
<path d="M253.429 193.701C257.833 193.161 260.965 189.155 260.424 184.754C259.883 180.352 255.875 177.223 251.47 177.763C247.066 178.304 243.935 182.31 244.476 186.711C245.016 191.112 249.025 194.242 253.429 193.701Z" stroke="#263238" stroke-width="1.1031" stroke-miterlimit="10" stroke-linecap="round" stroke-linejoin="round"/>
<path d="M230.326 205.902C230.326 205.902 227.915 206.437 226.487 208.935C225.059 211.433 225.951 219.284 225.951 219.284C225.951 219.284 233.272 226.51 239.521 229.543L241.396 219.195L244.252 229.543C244.252 229.543 253.894 222.674 256.572 216.964C256.572 216.964 257.465 210.273 256.572 208.043C255.679 205.813 253.715 205.902 253.715 205.902" stroke="#263238" stroke-width="1.1031" stroke-miterlimit="10" stroke-linecap="round" stroke-linejoin="round"/>
<path d="M218.899 275.042C218.899 275.042 216.042 255.861 212.203 248.011" stroke="#263238" stroke-width="1.1031" stroke-miterlimit="10" stroke-linecap="round" stroke-linejoin="round"/>
<path d="M203.992 231.061C203.992 231.061 207.652 236.146 209.884 240.963" stroke="#263238" stroke-width="1.1031" stroke-miterlimit="10" stroke-linecap="round" stroke-linejoin="round"/>
<path d="M279.25 245.334C280.232 241.498 281.303 238.197 282.375 235.967" stroke="#263238" stroke-width="1.1031" stroke-miterlimit="10" stroke-linecap="round" stroke-linejoin="round"/>
<path d="M273.266 275.042C273.266 275.042 275.319 261.928 277.819 251.044" stroke="#263238" stroke-width="1.1031" stroke-miterlimit="10" stroke-linecap="round" stroke-linejoin="round"/>
<path d="M276.84 256.575C278.804 253.988 281.661 252.025 284.785 251.133" stroke="#263238" stroke-width="1.1031" stroke-miterlimit="10" stroke-linecap="round" stroke-linejoin="round"/>
<path d="M256.93 215.181C256.93 215.181 273.535 221.782 284.337 225.619C284.337 225.619 297.549 238.019 311.744 281.019C311.744 281.019 298.799 302.877 274.07 309.835" stroke="#263238" stroke-width="1.1031" stroke-miterlimit="10" stroke-linecap="round" stroke-linejoin="round"/>
<path d="M278.266 289.673L290.228 279.681C290.228 279.681 296.567 274.864 303.084 278.165" stroke="#263238" stroke-width="1.1031" stroke-miterlimit="10" stroke-linecap="round" stroke-linejoin="round"/>
<path d="M277.82 255.415C277.82 255.415 287.73 269.957 290.229 279.77" stroke="#263238" stroke-width="1.1031" stroke-miterlimit="10" stroke-linecap="round" stroke-linejoin="round"/>
<path d="M210.419 283.071L206.937 279.77C206.937 279.77 201.759 278.878 195.867 282.803" stroke="#263238" stroke-width="1.1031" stroke-miterlimit="10" stroke-linecap="round" stroke-linejoin="round"/>
<path d="M206.938 279.77C206.938 279.77 211.312 265.496 215.508 258.181" stroke="#263238" stroke-width="1.1031" stroke-miterlimit="10" stroke-linecap="round" stroke-linejoin="round"/>
<path d="M225.686 216.965C225.686 216.965 201.761 225.975 199.439 228.562C197.118 231.15 188.191 281.376 187.923 287.086C187.745 292.26 206.313 303.769 215.598 308.586" stroke="#263238" stroke-width="1.1031" stroke-miterlimit="10" stroke-linecap="round" stroke-linejoin="round"/>
<path d="M312.281 208.846H284.963C281.749 208.846 279.16 206.259 279.16 203.047V187.078C279.16 183.866 281.749 181.279 284.963 181.279H312.281C315.494 181.279 318.083 183.866 318.083 187.078V203.047C318.173 206.259 315.584 208.846 312.281 208.846Z" fill="white" stroke="#263238" stroke-width="1.1031" stroke-miterlimit="10" stroke-linecap="round" stroke-linejoin="round"/>
<path d="M291.746 189.576L284.336 194.215L291.21 200.371" stroke="#263238" stroke-width="1.1031" stroke-miterlimit="10" stroke-linecap="round" stroke-linejoin="round"/>
<path d="M305.408 200.817L312.193 195.108L304.426 190.022" stroke="#263238" stroke-width="1.1031" stroke-miterlimit="10" stroke-linecap="round" stroke-linejoin="round"/>
<path d="M295.406 204.385L300.941 187.078" stroke="#263238" stroke-width="1.1031" stroke-miterlimit="10" stroke-linecap="round" stroke-linejoin="round"/>
<path d="M243.538 233.915C243.538 234.808 242.824 235.521 241.931 235.521C241.038 235.521 240.324 234.808 240.324 233.915C240.324 233.023 241.038 232.31 241.931 232.31C242.824 232.31 243.538 233.023 243.538 233.915Z" fill="#263238"/>
<path d="M271.304 317.953H216.847C216.133 317.953 215.598 317.418 215.598 316.704C215.598 315.99 216.133 315.455 216.847 315.455H271.304C272.019 315.455 272.554 315.99 272.554 316.704C272.554 317.329 271.929 317.953 271.304 317.953Z" fill="#263238"/>
<path d="M273.178 313.671L280.498 279.413C280.945 277.183 279.248 275.042 276.927 275.042H213.275C210.954 275.042 209.258 277.183 209.704 279.413L216.221 312.511C216.578 314.206 218.007 315.366 219.703 315.455L269.518 316.615C271.303 316.615 272.821 315.455 273.178 313.671Z" fill="white" stroke="#263238" stroke-width="1.1031" stroke-miterlimit="10" stroke-linecap="round" stroke-linejoin="round"/>
<path d="M249.966 294.758C249.966 297.524 247.734 299.843 244.878 299.843C242.021 299.843 239.789 297.613 239.789 294.758C239.789 291.903 242.021 289.673 244.878 289.673C247.734 289.673 249.966 291.992 249.966 294.758Z" fill="#263238"/>
<path d="M259.965 278.254H267.464" stroke="#263238" stroke-width="1.1031" stroke-miterlimit="10" stroke-linecap="round" stroke-linejoin="round"/>
<path d="M223.809 278.254H252.555" stroke="#263238" stroke-width="1.1031" stroke-miterlimit="10" stroke-linecap="round" stroke-linejoin="round"/>
<path d="M273.269 350.069L267.466 365.325C267.466 365.325 252.647 361.578 233.721 357.742C213.902 353.638 193.191 348.464 182.478 329.64C181.139 327.32 180.335 324.644 180.871 322.057C182.389 315.544 190.87 313.76 196.494 313.135C199.975 312.689 203.546 312.6 207.028 312.511C208.814 312.511 214.795 311.53 216.223 312.6C216.223 312.6 219.973 315.366 223.097 316.704C226.222 318.042 272.555 315.455 272.555 315.455C272.555 315.455 273.894 312.511 273.983 309.924C281.214 306.266 298.087 303.144 305.229 304.482C316.388 306.623 322.905 313.136 321.745 320.005C320.495 326.785 295.766 345.074 273.269 350.069Z" fill="#263238"/>
<path d="M273.268 350.069C273.268 350.069 259.163 346.322 247.736 338.561C236.219 330.799 227.292 321.789 211.223 323.662" stroke="white" stroke-width="1.1031" stroke-miterlimit="10" stroke-linecap="round" stroke-linejoin="round"/>
<path d="M245.059 336.688C252.29 334.636 257.646 329.908 263.449 325.358C269.609 320.54 276.126 315.99 283.178 312.422" stroke="white" stroke-width="1.1031" stroke-miterlimit="10" stroke-linecap="round" stroke-linejoin="round"/>
<path d="M242.559 187.078H244.701" stroke="#263238" stroke-width="1.1031" stroke-miterlimit="10" stroke-linecap="round" stroke-linejoin="round"/>
</g>
<defs>
<clipPath id="clip0_87_27644">
<rect width="392" height="383.435" fill="white"/>
</clipPath>
</defs>
</svg>
