<svg width="20" height="20" viewBox="0 0 20 20" fill="none" xmlns="http://www.w3.org/2000/svg">
<g clip-path="url(#clip0_84_16778)">
<path d="M19.9922 19.9991C18.6055 19.9991 17.2422 19.9991 15.8555 19.9991C15.8555 19.9131 15.8555 19.8389 15.8555 19.7607C15.8555 17.5137 15.8594 15.2668 15.8477 13.0198C15.8438 12.5548 15.7969 12.0819 15.707 11.6247C15.4531 10.343 14.6133 9.85841 13.3711 9.98346C12.1914 10.1046 11.5313 10.7455 11.3359 11.9647C11.2578 12.4571 11.2227 12.9612 11.2188 13.4614C11.207 15.5599 11.2148 17.6544 11.2148 19.7529C11.2148 19.8311 11.2148 19.9053 11.2148 19.9952C9.83203 19.9952 8.46094 19.9952 7.08203 19.9952C7.08203 15.5481 7.08203 11.1128 7.08203 6.65794C8.39844 6.65794 9.70703 6.65794 11.0469 6.65794C11.0469 7.25192 11.0469 7.84981 11.0469 8.50632C11.1094 8.43598 11.1367 8.41253 11.1562 8.38518C11.8555 7.22457 12.9102 6.58369 14.2188 6.38049C15.3008 6.21245 16.375 6.30233 17.4023 6.72437C18.582 7.20503 19.2539 8.13117 19.6133 9.31914C19.8828 10.2062 19.9844 11.1167 19.9922 12.035C20.0078 14.6533 20 17.2715 20.0039 19.8897C20 19.9209 19.9961 19.9522 19.9922 19.9991Z" fill="#E36F59"/>
<path d="M0.339844 19.9954C0.339844 15.5445 0.339844 11.1053 0.339844 6.6582C1.71484 6.6582 3.07812 6.6582 4.46094 6.6582C4.46094 11.0974 4.46094 15.5406 4.46094 19.9954C3.09375 19.9954 1.72266 19.9954 0.339844 19.9954Z" fill="#E36F59"/>
<path d="M2.40234 4.83002C1.08594 4.83002 0 3.73194 0 2.40329C0 1.07856 1.08594 -0.00389723 2.41406 1.05475e-05C3.73047 0.00391832 4.80469 1.08637 4.80469 2.4072C4.80469 3.73194 3.71484 4.83002 2.40234 4.83002Z" fill="#E36F59"/>
</g>
<defs>
<clipPath id="clip0_84_16778">
<rect width="20" height="20" fill="white"/>
</clipPath>
</defs>
</svg>
