<svg width="97" height="83" viewBox="0 0 97 83" fill="none" xmlns="http://www.w3.org/2000/svg">
<path d="M31.0452 37.7078C28.6562 37.0199 26.2671 36.6709 23.9432 36.6709C20.3545 36.6709 17.3601 37.4911 15.0382 38.4953C17.2766 30.3004 22.654 16.1602 33.3661 14.5679C34.3582 14.4203 35.1712 13.703 35.4418 12.7374L37.783 4.36339C37.9804 3.65521 37.8634 2.89718 37.4595 2.28261C37.0555 1.66804 36.4064 1.25799 35.6789 1.15828C34.8883 1.05042 34.0824 0.995476 33.2837 0.995476C20.4257 0.995476 7.69191 14.4163 2.31856 33.6327C-0.835642 44.9066 -1.76054 61.856 6.00899 72.5245C10.3567 78.4941 16.6997 81.6819 24.862 82.0004C24.8956 82.0014 24.9281 82.0025 24.9617 82.0025C35.0328 82.0025 43.9632 75.2198 46.6799 65.5098C48.3028 59.705 47.5692 53.6174 44.6124 48.364C41.6871 43.1697 36.8693 39.3836 31.0452 37.7078Z" fill="#E36F59"/>
<path d="M94.0881 48.365C91.1628 43.1697 86.345 39.3836 80.5209 37.7078C78.1318 37.02 75.7428 36.6709 73.4199 36.6709C69.8312 36.6709 66.8357 37.4911 64.5138 38.4953C66.7523 30.3004 72.1297 16.1602 82.8428 14.5679C83.8348 14.4203 84.6468 13.703 84.9185 12.7374L87.2597 4.36339C87.4571 3.65521 87.3401 2.89718 86.9361 2.28261C86.5332 1.66804 85.8841 1.25799 85.1555 1.15828C84.366 1.05042 83.5601 0.995476 82.7604 0.995476C69.9024 0.995476 57.1686 14.4163 51.7942 33.6327C48.641 44.9066 47.7161 61.856 55.4867 72.5265C59.8334 78.4951 66.1774 81.684 74.3386 82.0014C74.3722 82.0025 74.4048 82.0035 74.4394 82.0035C84.5094 82.0035 93.4409 75.2208 96.1576 65.5109C97.7785 59.7061 97.0439 53.6174 94.0881 48.365Z" fill="#E36F59"/>
</svg>
